<svg width="410" height="319" viewBox="0 0 410 319" fill="none" xmlns="http://www.w3.org/2000/svg">
<g clip-path="url(#clip0_8181_199)">
<path d="M18.7271 130.371C17.5913 130.434 16.6319 129.538 16.617 128.401L16.2734 102.273C16.2502 100.512 18.3505 99.5827 19.6381 100.785L46.0791 125.471C47.3669 126.673 46.5837 128.832 44.8246 128.93L18.7271 130.371Z" fill="#EB5757"/>
</g>
<circle cx="209.119" cy="184.637" r="107.222" fill="#EEF1E8"/>
<circle cx="208.369" cy="183.889" r="134.464" stroke="#EB5757"/>
<circle cx="208.727" cy="184.728" r="81.7283" fill="#EB5757"/>
<path d="M337.703 28.9416L339.949 54.6L316.605 43.7161L337.703 28.9416Z" stroke="#A2FF00" stroke-width="2"/>
<circle cx="129.078" cy="10.1223" r="9.12232" stroke="#EEF1E8" stroke-width="2"/>
<g clip-path="url(#clip1_8181_199)">
<path d="M57.8221 253.541C50.9381 248.703 41.4176 250.237 36.4174 257.057C31.4173 263.876 32.8179 273.417 39.5026 278.527L57.8221 253.541Z" fill="#A2FF00"/>
</g>
<path d="M208.014 155.913C206.933 153.869 203.571 153.869 202.489 155.913L174.364 209.038C174.111 209.514 173.986 210.047 174 210.587C174.015 211.126 174.168 211.652 174.446 212.114C174.725 212.576 175.118 212.958 175.588 213.223C176.057 213.488 176.588 213.626 177.127 213.625H233.377C233.916 213.626 234.446 213.488 234.915 213.223C235.385 212.958 235.778 212.577 236.055 212.115C236.333 211.653 236.487 211.127 236.501 210.588C236.515 210.05 236.39 209.517 236.136 209.041L208.014 155.913ZM208.377 204.25H202.127V198H208.377V204.25ZM202.127 191.75V176.125H208.377L208.38 191.75H202.127Z" fill="#EEF1E8"/>
<defs>
<clipPath id="clip0_8181_199">
<rect width="45.5504" height="23.7534" rx="4" transform="matrix(-0.730951 -0.68243 -0.68243 0.730951 49.5068 128.671)" fill="white"/>
</clipPath>
<clipPath id="clip1_8181_199">
<rect width="15.1835" height="30.9825" fill="white" transform="translate(45.5771 244.563) rotate(36.2481)"/>
</clipPath>
</defs>
</svg>
