<svg width="410" height="319" viewBox="0 0 410 319" fill="none" xmlns="http://www.w3.org/2000/svg">
<g clip-path="url(#clip0_8182_581)">
<path d="M18.7281 130.371C17.5923 130.434 16.6329 129.538 16.618 128.401L16.2743 102.273C16.2512 100.512 18.3515 99.5827 19.639 100.785L46.0801 125.471C47.3679 126.673 46.5847 128.832 44.8256 128.93L18.7281 130.371Z" fill="#EFBE27"/>
</g>
<circle cx="209.12" cy="184.637" r="107.222" fill="#EEF1E8"/>
<circle cx="208.37" cy="183.889" r="134.464" stroke="#EB5757"/>
<circle cx="208.728" cy="184.728" r="81.7283" fill="#EFBE27"/>
<path d="M209 150C189.75 150 174 165.75 174 185C174 204.25 189.75 220 209 220C228.25 220 244 204.25 244 185C244 165.75 228.25 150 209 150ZM206.25 165H211.75V192.5H206.25V165ZM209 207.5C207 207.5 205.25 205.75 205.25 203.75C205.25 201.75 207 200 209 200C211 200 212.75 201.75 212.75 203.75C212.75 205.75 211 207.5 209 207.5Z" fill="white"/>
<path d="M337.703 28.9416L339.949 54.6L316.605 43.7161L337.703 28.9416Z" stroke="#A2FF00" stroke-width="2"/>
<circle cx="129.079" cy="10.1223" r="9.12232" stroke="#EEF1E8" stroke-width="2"/>
<g clip-path="url(#clip1_8182_581)">
<path d="M57.823 253.541C50.939 248.703 41.4186 250.237 36.4184 257.057C31.4183 263.876 32.8189 273.417 39.5036 278.527L57.823 253.541Z" fill="#A2FF00"/>
</g>
<defs>
<clipPath id="clip0_8182_581">
<rect width="45.5504" height="23.7534" rx="4" transform="matrix(-0.730951 -0.68243 -0.68243 0.730951 49.5078 128.671)" fill="white"/>
</clipPath>
<clipPath id="clip1_8182_581">
<rect width="15.1835" height="30.9825" fill="white" transform="translate(45.5781 244.563) rotate(36.2481)"/>
</clipPath>
</defs>
</svg>
