<svg width="410" height="319" viewBox="0 0 410 319" fill="none" xmlns="http://www.w3.org/2000/svg">
<g clip-path="url(#clip0_8174_223)">
<path d="M18.7252 130.445C17.5894 130.507 16.63 129.611 16.615 128.474L16.2714 102.346C16.2482 100.585 18.3486 99.656 19.6361 100.858L46.0772 125.544C47.3649 126.746 46.5817 128.906 44.8227 129.003L18.7252 130.445Z" fill="#3CD856"/>
</g>
<g clip-path="url(#clip1_8174_223)">
<path d="M385.515 174.533C385.116 173.06 385.99 171.536 387.464 171.137L405.252 166.319C406.725 165.92 408.249 166.794 408.648 168.268C409.047 169.742 408.173 171.265 406.699 171.664L388.911 176.482C387.445 176.885 385.914 176.007 385.515 174.533Z" fill="#FF8A01"/>
<path d="M393.949 159.834C395.423 159.435 396.946 160.309 397.345 161.783L402.163 179.571C402.562 181.045 401.688 182.568 400.215 182.967C398.741 183.367 397.218 182.492 396.818 181.019L392 163.231C391.605 161.769 392.483 160.238 393.949 159.834Z" fill="#FFA412"/>
</g>
<circle cx="209.118" cy="184.71" r="107.222" fill="#EEF1E8"/>
<circle cx="208.368" cy="183.962" r="134.464" stroke="#A2FF00"/>
<circle cx="209.119" cy="184.71" r="81.7283" fill="#A2FF00"/>
<path d="M178.377 186.209L198.622 206.454L240.61 164.465" stroke="#161617" stroke-width="8" stroke-linecap="round"/>
<path d="M328.555 40.0276L330.801 65.6859L307.457 54.802L328.555 40.0276Z" stroke="#A2FF00" stroke-width="2"/>
<circle cx="129.076" cy="10.1956" r="9.12232" stroke="#EEF1E8" stroke-width="2"/>
<g clip-path="url(#clip2_8174_223)">
<path d="M57.8221 253.614C50.9381 248.776 41.4176 250.31 36.4174 257.13C31.4173 263.95 32.8179 273.491 39.5026 278.601L57.8221 253.614Z" fill="#A2FF00"/>
</g>
<defs>
<clipPath id="clip0_8174_223">
<rect width="45.5504" height="23.7534" rx="4" transform="matrix(-0.730951 -0.68243 -0.68243 0.730951 49.5049 128.744)" fill="white"/>
</clipPath>
<clipPath id="clip1_8174_223">
<rect width="18.5576" height="18.5576" fill="white" transform="translate(393.651 158.735) rotate(29.8452)"/>
</clipPath>
<clipPath id="clip2_8174_223">
<rect width="15.1835" height="30.9825" fill="white" transform="translate(45.5771 244.637) rotate(36.2481)"/>
</clipPath>
</defs>
</svg>
